<?xml version="1.0" encoding="utf-8"?>
<!-- Generator: Adobe Illustrator 21.0.2, SVG Export Plug-In . SVG Version: 6.00 Build 0)  -->
<svg version="1.1" xmlns="http://www.w3.org/2000/svg" xmlns:xlink="http://www.w3.org/1999/xlink" x="0px" y="0px"
	 viewBox="0 0 363.2 374.8" style="enable-background:new 0 0 363.2 374.8;" xml:space="preserve">
<style type="text/css">
	.st0{fill:#F6CE88;}
	.st1{fill:#F0AD39;stroke:#000000;stroke-width:2;stroke-linejoin:round;stroke-miterlimit:10;}
	.st2{fill:none;stroke:#000000;stroke-width:3;stroke-linecap:round;stroke-linejoin:round;stroke-miterlimit:10;}
	.st3{fill:#75B94C;stroke:#000000;stroke-width:3;stroke-linecap:round;stroke-linejoin:bevel;stroke-miterlimit:10;}

		.st4{fill:#A41734;stroke:#000000;stroke-width:3;stroke-linecap:square;stroke-linejoin:bevel;stroke-miterlimit:10;stroke-dasharray:1,8,1,12;}
	.st5{fill:#385AA6;stroke:#000000;stroke-width:3;stroke-linecap:round;stroke-linejoin:round;stroke-miterlimit:10;}
	.st6{fill:#D6D6D6;stroke:#F0AD39;stroke-width:3;stroke-miterlimit:10;}

		.st7{fill:none;stroke:#000000;stroke-width:8;stroke-linecap:round;stroke-linejoin:bevel;stroke-miterlimit:10;stroke-dasharray:2,24;}
	.st8{fill:#607BB8;stroke:#231F20;stroke-miterlimit:10;}
	.st9{fill:#385AA6;stroke:#000000;stroke-miterlimit:10;}
</style>
<g id="Layer_2">
	<g>
		<polygon class="st0" points="73.2,360.4 73.2,73.8 111,34.4 300.2,34.4 300.2,360.4 		"/>
		<path d="M299.2,35.4v324h-225V74.2l37.2-38.8H299.2 M301.2,33.4H110.6l-38.3,40v288h229V33.4L301.2,33.4z"/>
	</g>
	<g>
		<polygon class="st0" points="64.6,352.4 64.6,65.8 102.3,26.4 291.6,26.4 291.6,352.4 		"/>
		<path d="M290.6,27.4v324h-225V66.2l37.2-38.8H290.6 M292.6,25.4H101.9l-38.3,40v288h229V25.4L292.6,25.4z"/>
	</g>
	<g>
		<polygon class="st0" points="54.6,342.4 54.6,55.8 92.3,16.4 281.6,16.4 281.6,342.4 		"/>
		<path d="M280.6,17.4v324h-225V56.2l37.2-38.8H280.6 M282.6,15.4H91.9l-38.3,40v288h229V15.4L282.6,15.4z"/>
	</g>
	<polyline class="st1" points="54.6,55.4 92.6,55.4 92.6,16.4 	"/>
	<g>
		<line class="st2" x1="81.6" y1="88.4" x2="192.6" y2="88.4"/>
		<line class="st2" x1="200.6" y1="88.4" x2="229.6" y2="88.4"/>
		<line class="st2" x1="243.6" y1="88.4" x2="267.1" y2="88.4"/>
		<line class="st2" x1="69.1" y1="101" x2="126.1" y2="101"/>
		<line class="st2" x1="147.6" y1="101" x2="175.6" y2="101"/>
		<line class="st2" x1="187.6" y1="101" x2="215.6" y2="101"/>
		<line class="st2" x1="224.6" y1="101" x2="237.6" y2="101"/>
		<line class="st2" x1="250.6" y1="101" x2="267.1" y2="101"/>
		<line class="st2" x1="69.1" y1="115.4" x2="153.1" y2="115.4"/>
		<line class="st2" x1="165.6" y1="115.4" x2="220.6" y2="115.4"/>
		<line class="st2" x1="230.6" y1="115.4" x2="267.1" y2="115.4"/>
		<line class="st2" x1="69.1" y1="129.4" x2="152.1" y2="129.4"/>
		<line class="st2" x1="164.6" y1="129.4" x2="197.6" y2="129.4"/>
		<line class="st2" x1="204.6" y1="129.4" x2="223.6" y2="129.4"/>
		<line class="st2" x1="235.6" y1="129.4" x2="267.1" y2="129.4"/>
		<line class="st2" x1="69.1" y1="143.9" x2="113.1" y2="143.9"/>
		<line class="st2" x1="135.1" y1="143.9" x2="158.1" y2="143.9"/>
		<line class="st2" x1="173.1" y1="143.9" x2="189.1" y2="143.9"/>
		<line class="st2" x1="212.1" y1="143.9" x2="267.1" y2="143.9"/>
		<line class="st2" x1="69.1" y1="157.9" x2="105.1" y2="157.9"/>
		<line class="st2" x1="126.1" y1="157.9" x2="144.1" y2="157.9"/>
		<line class="st2" x1="81.6" y1="187.4" x2="118.6" y2="187.4"/>
		<line class="st2" x1="136.6" y1="187.4" x2="163.6" y2="187.4"/>
		<line class="st2" x1="173.6" y1="187.4" x2="201.6" y2="187.4"/>
		<line class="st2" x1="217.6" y1="187.4" x2="267.1" y2="187.4"/>
		<line class="st2" x1="69.1" y1="201.1" x2="137.1" y2="201.1"/>
		<line class="st2" x1="161.6" y1="201.1" x2="212.6" y2="201.1"/>
		<line class="st2" x1="232.6" y1="201.1" x2="267.1" y2="201.1"/>
		<line class="st2" x1="69.1" y1="215.4" x2="193.1" y2="215.4"/>
		<line class="st2" x1="205.6" y1="215.4" x2="267.1" y2="215.4"/>
		<line class="st2" x1="69.1" y1="229.9" x2="128.1" y2="229.9"/>
		<line class="st2" x1="140.6" y1="229.9" x2="182.6" y2="229.9"/>
		<line class="st2" x1="190.6" y1="229.9" x2="267.1" y2="229.9"/>
		<line class="st2" x1="69.1" y1="242.9" x2="92.1" y2="242.9"/>
		<line class="st2" x1="112.1" y1="242.9" x2="139.1" y2="242.9"/>
		<line class="st2" x1="151.1" y1="242.9" x2="166.1" y2="242.9"/>
	</g>
</g>
<g id="Layer_4">

		<rect x="161.6" y="33.9" transform="matrix(0.5496 -0.8354 0.8354 0.5496 -112.1279 257.3187)" class="st3" width="42" height="397.5"/>
	<line class="st4" x1="19.1" y1="139.1" x2="335.7" y2="347.4"/>
</g>
<g id="Layer_3">
	<rect x="217.2" y="152.4" class="st5" width="14.3" height="20.5"/>
	<circle class="st5" cx="224.2" cy="266.1" r="102.5"/>
	<circle class="st6" cx="224.2" cy="266.1" r="86.5"/>

		<ellipse transform="matrix(0.1483 -0.9889 0.9889 0.1483 -72.1367 448.3663)" class="st7" cx="224.2" cy="266.1" rx="74.5" ry="74.5"/>
	<path class="st8" d="M215.9,228.9l3.6,33.2c0.2,1.6,1.5,2.7,3.1,2.7h3.5c1.6,0,2.9-1.2,3.1-2.7l3.6-33.2c0.1-0.7-0.1-1.4-0.4-1.9
		l-5.2-8.5c-1.2-1.9-4-1.9-5.2,0l-5.4,8.5C216,227.5,215.9,228.2,215.9,228.9z"/>
	<path class="st8" d="M271.8,244l-40.7,16.2l2.5,6.3l42.1-13.1l12.4-8.3c1.6-1.1,0.7-3.3-1.2-3L271.8,244z"/>
	<path class="st8" d="M199.3,314.2l20.9-38.4l-3-1.3l-22.5,37.9l-5.6,13.4c-0.7,1.7,0.3,2.2,1.4,0.6L199.3,314.2z"/>
	<path class="st5" d="M236.6,158.9h-24.5c-2.8,0-5-2.2-5-5v-9c0-2.8,2.2-5,5-5h24.5c2.8,0,5,2.2,5,5v9
		C241.6,156.6,239.3,158.9,236.6,158.9z"/>
	<g>
		<circle cx="224.2" cy="266.1" r="9.5"/>
	</g>
	<path class="st9" d="M224.2,277.1c-6.1,0-11-4.9-11-11s4.9-11,11-11s11,4.9,11,11S230.3,277.1,224.2,277.1z M224.2,258.1
		c-4.4,0-8,3.6-8,8s3.6,8,8,8s8-3.6,8-8S228.7,258.1,224.2,258.1z"/>
</g>
</svg>
